<svg id="visual" viewBox="0 0 1920 1080" width="1920" height="1080" xmlns="http://www.w3.org/2000/svg" xmlns:xlink="http://www.w3.org/1999/xlink" version="1.1"><path d="M0 77L192 77L192 87L384 87L384 120L576 120L576 120L768 120L768 109L960 109L960 98L1152 98L1152 131L1344 131L1344 87L1536 87L1536 109L1728 109L1728 109L1920 109L1920 66L1920 0L1920 0L1728 0L1728 0L1536 0L1536 0L1344 0L1344 0L1152 0L1152 0L960 0L960 0L768 0L768 0L576 0L576 0L384 0L384 0L192 0L192 0L0 0Z" fill="#000000"></path><path d="M0 152L192 152L192 174L384 174L384 195L576 195L576 185L768 185L768 195L960 195L960 185L1152 185L1152 206L1344 206L1344 174L1536 174L1536 163L1728 163L1728 163L1920 163L1920 131L1920 64L1920 107L1728 107L1728 107L1536 107L1536 85L1344 85L1344 129L1152 129L1152 96L960 96L960 107L768 107L768 118L576 118L576 118L384 118L384 85L192 85L192 75L0 75Z" fill="#001375"></path><path d="M0 282L192 282L192 314L384 314L384 336L576 336L576 293L768 293L768 271L960 271L960 282L1152 282L1152 325L1344 325L1344 303L1536 303L1536 249L1728 249L1728 271L1920 271L1920 228L1920 129L1920 161L1728 161L1728 161L1536 161L1536 172L1344 172L1344 204L1152 204L1152 183L960 183L960 193L768 193L768 183L576 183L576 193L384 193L384 172L192 172L192 150L0 150Z" fill="#00238d"></path><path d="M0 336L192 336L192 379L384 379L384 422L576 422L576 379L768 379L768 357L960 357L960 368L1152 368L1152 390L1344 390L1344 368L1536 368L1536 347L1728 347L1728 357L1920 357L1920 303L1920 226L1920 269L1728 269L1728 247L1536 247L1536 301L1344 301L1344 323L1152 323L1152 280L960 280L960 269L768 269L768 291L576 291L576 334L384 334L384 312L192 312L192 280L0 280Z" fill="#0035a5"></path><path d="M0 465L192 465L192 541L384 541L384 563L576 563L576 498L768 498L768 465L960 465L960 541L1152 541L1152 563L1344 563L1344 519L1536 519L1536 476L1728 476L1728 498L1920 498L1920 487L1920 301L1920 355L1728 355L1728 345L1536 345L1536 366L1344 366L1344 388L1152 388L1152 366L960 366L960 355L768 355L768 377L576 377L576 420L384 420L384 377L192 377L192 334L0 334Z" fill="#0348bc"></path><path d="M0 671L192 671L192 768L384 768L384 800L576 800L576 692L768 692L768 746L960 746L960 692L1152 692L1152 800L1344 800L1344 800L1536 800L1536 681L1728 681L1728 779L1920 779L1920 779L1920 485L1920 496L1728 496L1728 474L1536 474L1536 517L1344 517L1344 561L1152 561L1152 539L960 539L960 463L768 463L768 496L576 496L576 561L384 561L384 539L192 539L192 463L0 463Z" fill="#0a5ad2"></path><path d="M0 995L192 995L192 995L384 995L384 995L576 995L576 973L768 973L768 995L960 995L960 984L1152 984L1152 1005L1344 1005L1344 995L1536 995L1536 1016L1728 1016L1728 984L1920 984L1920 984L1920 777L1920 777L1728 777L1728 679L1536 679L1536 798L1344 798L1344 798L1152 798L1152 690L960 690L960 744L768 744L768 690L576 690L576 798L384 798L384 766L192 766L192 669L0 669Z" fill="#0e6ce9"></path><path d="M0 1081L192 1081L192 1081L384 1081L384 1081L576 1081L576 1081L768 1081L768 1081L960 1081L960 1081L1152 1081L1152 1081L1344 1081L1344 1081L1536 1081L1536 1081L1728 1081L1728 1081L1920 1081L1920 1081L1920 982L1920 982L1728 982L1728 1014L1536 1014L1536 993L1344 993L1344 1003L1152 1003L1152 982L960 982L960 993L768 993L768 971L576 971L576 993L384 993L384 993L192 993L192 993L0 993Z" fill="#117fff"></path></svg>