<?xml version="1.0" standalone="no"?>
<!DOCTYPE svg PUBLIC "-//W3C//DTD SVG 20010904//EN"
 "http://www.w3.org/TR/2001/REC-SVG-20010904/DTD/svg10.dtd">
<svg version="1.0" xmlns="http://www.w3.org/2000/svg"
 width="759.000000pt" height="759.000000pt" viewBox="0 0 759.000000 759.000000"
 preserveAspectRatio="xMidYMid meet">
<metadata>
Created by potrace 1.14, written by Peter Selinger 2001-2017
</metadata>
<g transform="translate(0.000000,759.000000) scale(0.100000,-0.100000)"
fill="#000000" stroke="none">
<path d="M3185 7444 c-388 -88 -884 -206 -1485 -353 -135 -32 -371 -89 -525
-126 -388 -93 -384 -91 -395 -120 -12 -33 3 -72 32 -85 22 -9 76 -24 568 -155
118 -31 346 -92 505 -135 160 -43 360 -97 445 -120 85 -22 176 -48 203 -56
l47 -16 0 -99 c0 -54 -3 -99 -8 -99 -4 0 -94 25 -199 55 -106 30 -195 55 -198
55 -3 0 -5 -133 -5 -294 l0 -295 58 -41 c31 -23 111 -68 177 -101 346 -170
867 -269 1263 -240 415 31 807 142 1089 310 l113 66 0 298 c0 163 -2 297 -4
297 -2 0 -73 -20 -158 -44 -84 -24 -165 -46 -180 -50 -14 -3 -33 -9 -42 -12
-14 -5 -16 7 -16 100 0 58 2 106 5 106 3 0 97 25 208 55 630 173 638 175 897
240 102 25 193 49 203 51 16 5 17 -21 17 -444 0 -247 3 -496 6 -553 l7 -104
96 0 96 0 5 579 5 579 130 34 c163 41 194 69 143 127 -25 28 -50 34 -1148 291
-228 53 -527 123 -665 156 -137 33 -279 67 -315 74 -36 8 -114 26 -175 40
-299 69 -428 95 -472 94 -26 -1 -174 -30 -328 -65z m527 -316 c128 -61 211
-164 239 -296 14 -67 0 -110 -48 -152 -27 -24 -131 -80 -149 -80 -2 0 4 17 13
37 11 27 14 57 10 100 -11 137 -114 231 -253 233 -103 0 -181 -44 -229 -131
-25 -45 -30 -65 -29 -119 0 -36 6 -76 13 -88 7 -13 10 -26 8 -28 -10 -10 -145
66 -170 95 -36 43 -41 80 -22 153 38 149 149 261 305 305 28 8 82 12 142 10
85 -3 104 -8 170 -39z"/>
<path d="M1899 5929 c-69 -37 -166 -135 -214 -214 -20 -33 -48 -96 -63 -140
l-27 -80 -3 -2340 c-2 -1629 1 -2361 8 -2410 47 -305 279 -553 588 -627 62
-15 2376 -23 2542 -9 209 18 375 89 510 221 101 98 186 261 210 402 7 44 10
776 8 2418 l-3 2355 -23 65 c-57 158 -165 292 -289 358 l-63 33 -2 -223 -3
-222 -82 -71 c-231 -197 -651 -351 -1143 -417 -144 -19 -537 -16 -690 6 -518
73 -925 228 -1132 431 l-58 57 0 219 c0 120 -3 219 -7 219 -5 0 -33 -14 -64
-31z m3081 -2558 l0 -1710 -1455 -1 -1455 0 0 1705 0 1706 43 -26 c282 -173
747 -301 1217 -336 385 -28 887 41 1250 173 105 38 290 126 350 166 25 17 46
31 48 31 1 1 2 -768 2 -1708z m-1306 -2125 c243 -119 277 -446 63 -606 -66
-51 -132 -72 -220 -72 -141 1 -256 72 -318 198 -95 193 -8 412 196 494 77 31
201 25 279 -14z m-873 -244 c41 -46 41 -111 0 -153 l-29 -29 -220 0 c-205 0
-221 1 -245 20 -59 47 -56 143 7 181 29 18 47 19 244 17 l214 -3 29 -33z"/>
<path d="M2729 4637 c-162 -61 -211 -269 -93 -391 46 -47 85 -67 149 -73 144
-15 265 94 265 239 0 95 -44 169 -123 210 -52 26 -149 33 -198 15z"/>
<path d="M4149 4636 c-56 -20 -96 -53 -126 -104 -24 -40 -28 -58 -28 -123 0
-67 4 -81 30 -125 110 -176 382 -139 441 61 27 95 1 182 -76 247 -64 56 -160
73 -241 44z"/>
<path d="M2874 3459 c-80 -23 -106 -114 -60 -212 54 -113 169 -234 287 -300
37 -20 109 -51 160 -68 82 -28 111 -33 229 -37 113 -3 149 -1 223 17 228 54
412 189 503 366 32 65 36 80 32 126 -7 72 -47 109 -116 109 -66 0 -91 -16
-138 -89 -82 -124 -178 -198 -309 -237 -88 -27 -249 -24 -335 5 -131 45 -222
115 -298 229 -57 85 -109 112 -178 91z"/>
<path d="M3436 1056 c-48 -29 -75 -77 -76 -134 0 -54 20 -93 67 -129 97 -74
253 4 253 126 0 128 -135 203 -244 137z"/>
<path d="M5823 5320 c-47 -28 -67 -74 -67 -147 l0 -63 -48 0 -48 0 0 -355 0
-355 65 0 65 0 0 -60 c0 -52 4 -64 31 -94 53 -61 130 -58 184 6 20 24 25 40
25 89 l0 59 55 0 55 0 0 355 0 355 -45 0 -45 0 2 63 c2 74 -17 116 -65 146
-45 27 -120 28 -164 1z"/>
</g>
</svg>
